<svg id="facebook_icon" xmlns="http://www.w3.org/2000/svg" width="9.295" height="16.5" viewBox="0 0 9.295 16.5">
  <path id="Path_264" data-name="Path 264" d="M31.023,0l-2.23,0a3.835,3.835,0,0,0-4.124,4.06V5.933H22.428a.344.344,0,0,0-.351.337V8.982a.344.344,0,0,0,.351.336h2.242v6.845a.344.344,0,0,0,.351.336h2.925a.344.344,0,0,0,.351-.336V9.318h2.621a.344.344,0,0,0,.351-.336V6.269a.33.33,0,0,0-.1-.238.358.358,0,0,0-.248-.1H28.3V4.346c0-.763.189-1.15,1.225-1.15h1.5a.344.344,0,0,0,.35-.336V.34A.344.344,0,0,0,31.023,0Z" transform="translate(-22.077)" fill="#fff"/>
</svg>
