<svg id="instagram_icon" xmlns="http://www.w3.org/2000/svg" width="19.104" height="19.104" viewBox="0 0 19.104 19.104">
  <path id="Path_334" data-name="Path 334" d="M10.748,5.838a4.9,4.9,0,1,0,4.9,4.9A4.9,4.9,0,0,0,10.748,5.838Zm0,8.083a3.181,3.181,0,1,1,3.182-3.181A3.18,3.18,0,0,1,10.748,13.921Z" transform="translate(-1.193 -1.192)" fill="#fff"/>
  <path id="Path_335" data-name="Path 335" d="M13.49.061c-1.758-.082-6.111-.078-7.87,0A5.709,5.709,0,0,0,1.612,1.606C-.225,3.443.01,5.918.01,9.549c0,3.716-.207,6.134,1.6,7.943,1.844,1.843,4.356,1.6,7.943,1.6,3.681,0,4.951,0,6.252-.5,1.769-.687,3.105-2.269,3.236-5.109.083-1.758.078-6.111,0-7.87C18.885,2.26,17.086.226,13.49.061Zm2.782,16.215c-1.2,1.2-2.875,1.1-6.74,1.1-3.98,0-5.576.059-6.74-1.109-1.341-1.335-1.1-3.478-1.1-6.728,0-4.4-.451-7.565,3.962-7.791C6.669,1.709,6.968,1.7,9.521,1.7l.036.024c4.242,0,7.57-.444,7.77,3.969.045,1.007.056,1.309.056,3.858,0,3.934.074,5.539-1.11,6.728Z" transform="translate(0 0)" fill="#fff"/>
  <ellipse id="Ellipse_12" data-name="Ellipse 12" cx="1.145" cy="1.145" rx="1.145" ry="1.145" transform="translate(13.506 3.307)" fill="#fff"/>
</svg>
