<svg id="linkedIn_icon" xmlns="http://www.w3.org/2000/svg" width="16.205" height="14.803" viewBox="0 0 16.205 14.803">
  <g id="Group_44" data-name="Group 44">
    <path id="Path_100" data-name="Path 100" d="M.526,189.111H2.633a.526.526,0,0,0,.526-.526v-9.208a.526.526,0,0,0-.526-.526H.526a.526.526,0,0,0-.526.526v9.208A.526.526,0,0,0,.526,189.111Z" transform="translate(0 -174.308)" fill="#fff"/>
    <path id="Path_101" data-name="Path 101" d="M.526,26.839H2.633a.526.526,0,0,0,.526-.526V24.442a.526.526,0,0,0-.526-.526H.526A.526.526,0,0,0,0,24.442v1.871A.526.526,0,0,0,.526,26.839Z" transform="translate(0 -23.916)" fill="#fff"/>
    <path id="Path_102" data-name="Path 102" d="M191.634,170.983a3.2,3.2,0,0,0-1.31-.961,4.742,4.742,0,0,0-1.911-.377,4.681,4.681,0,0,0-3.6,1.62c-.2.215-.338.168-.338-.123v-.7a.526.526,0,0,0-.526-.526H182.07a.526.526,0,0,0-.526.526v9.208a.526.526,0,0,0,.526.526h2.107a.526.526,0,0,0,.526-.526v-3.2a10.3,10.3,0,0,1,.242-2.743,2.266,2.266,0,0,1,.894-1.192,2.533,2.533,0,0,1,1.473-.45,1.88,1.88,0,0,1,1.1.315,1.754,1.754,0,0,1,.658.883,9.415,9.415,0,0,1,.2,2.5v3.888a.526.526,0,0,0,.526.526H191.9a.526.526,0,0,0,.526-.526v-5.215a9.875,9.875,0,0,0-.174-2.125A3.48,3.48,0,0,0,191.634,170.983Z" transform="translate(-176.222 -165.373)" fill="#fff"/>
  </g>
</svg>
