<svg id="twitter_icon" xmlns="http://www.w3.org/2000/svg" width="17.186" height="13.963" viewBox="0 0 17.186 13.963">
  <g id="Group_45" data-name="Group 45">
    <path id="Path_104" data-name="Path 104" d="M17.186,49.653a7.346,7.346,0,0,1-2.03.556,3.5,3.5,0,0,0,1.55-1.947,7.041,7.041,0,0,1-2.234.853,3.523,3.523,0,0,0-6.094,2.409,3.628,3.628,0,0,0,.082.8A9.972,9.972,0,0,1,1.2,48.642a3.524,3.524,0,0,0,1.083,4.709,3.479,3.479,0,0,1-1.592-.434v.039A3.539,3.539,0,0,0,3.51,56.418a3.516,3.516,0,0,1-.924.116,3.115,3.115,0,0,1-.667-.06,3.557,3.557,0,0,0,3.292,2.454,7.079,7.079,0,0,1-4.368,1.5A6.6,6.6,0,0,1,0,60.382a9.919,9.919,0,0,0,5.4,1.581A9.959,9.959,0,0,0,15.433,51.938c0-.156-.005-.306-.013-.455A7.029,7.029,0,0,0,17.186,49.653Z" transform="translate(0 -48)" fill="#fff"/>
  </g>
</svg>
