<svg xmlns="http://www.w3.org/2000/svg" width="24" height="24" viewBox="0 0 24 24">
  <g id="white_empty_cart" transform="translate(-5219 17686)">
    <path id="Path_20" data-name="Path 20" d="M0,0H24V24H0Z" transform="translate(5219 -17686)" fill="rgba(0,0,0,0)"/>
    <path id="Path_25" data-name="Path 25" d="M19,6H17A5,5,0,0,0,7,6H5A2.006,2.006,0,0,0,3,8V20a2.006,2.006,0,0,0,2,2H19a2.006,2.006,0,0,0,2-2V8A2.006,2.006,0,0,0,19,6ZM12,3a3,3,0,0,1,3,3H9A3,3,0,0,1,12,3Zm7,17H5V8H19Zm-7-8A3,3,0,0,1,9,9H7A5,5,0,0,0,17,9H15A3,3,0,0,1,12,12Z" transform="translate(5219 -17686)" fill="#fff"/>
  </g>
</svg>
