<svg id="youtube_icon" xmlns="http://www.w3.org/2000/svg" width="18.442" height="12.912" viewBox="0 0 18.442 12.912">
  <path id="youtube" d="M18.062-4.062a2.31,2.31,0,0,0-1.625-1.626,53.98,53.98,0,0,0-7.216-.395,56.082,56.082,0,0,0-7.215.38A2.357,2.357,0,0,0,.38-4.062,24.344,24.344,0,0,0,0,.374,24.255,24.255,0,0,0,.38,4.81,2.311,2.311,0,0,0,2.006,6.435a54.078,54.078,0,0,0,7.216.395,56.082,56.082,0,0,0,7.215-.38,2.311,2.311,0,0,0,1.626-1.625,24.352,24.352,0,0,0,.38-4.436,23.109,23.109,0,0,0-.38-4.451ZM7.383,3.139V-2.391l4.8,2.765Zm0,0" transform="translate(-0.001 6.082)" fill="#fff"/>
</svg>
